<?xml version="1.0" encoding="UTF-8"?>
<level>
  <owner>Fistachka</owner>
  <repo>kabynebylo</repo>
  <version>v1.0.2</version>
  <next number="1" owner="Fistachka" repo="elochka-two"/>
  <readme>
    <ru>5080c57c7fb3043a8b256316ae44a4e999509e33aeed8e7c665dbb0eef6bf011</ru>
    <en>7c69eafe1ee50199a3df64433f4ced70d82f3d5dda88a7e80e24b66b32cbdaf7</en>
  </readme>
  <license>b1b99f5538d1fd3702219bff50c665196dfa42f6ee755c37fe41a6178d6bc6e5</license>
  <exercise number="1">
    <scale>major</scale>
    <bpm>104</bpm>
    <lowestNote>5</lowestNote>
    <tonalities>5</tonalities>
    <video name="1t.mp4" size="914658" type="video/mp4" volume="0.5">1e4c7c5a24d8449f34db1fc28670bd3f78bd9f66174bfd07aded0ac4ae0ab4d2</video>
    <notes>
      <note number="1" values="5" ticks="247" durationTicks="96" ppq="192" velocity="0.681"/>
      <note number="2" values="38" ticks="341" durationTicks="58" ppq="192" velocity="0.803"/>
      <note number="3" values="38" ticks="439" durationTicks="96" ppq="192" velocity="0.689"/>
      <note number="4" values="28" ticks="533" durationTicks="93" ppq="192" velocity="0.784"/>
      <note number="5" values="38" ticks="628" durationTicks="91" ppq="192" velocity="0.671"/>
      <note number="6" values="18" ticks="725" durationTicks="95" ppq="192" velocity="0.819"/>
      <note number="7" values="5" ticks="822" durationTicks="58" ppq="192" velocity="0.719"/>
    </notes>
  </exercise>
  <exercise number="2">
    <scale>major</scale>
    <bpm>104</bpm>
    <lowestNote>18</lowestNote>
    <tonalities>5</tonalities>
    <video name="2t.mp4" size="1195088" type="video/mp4" volume="0.5">5730fe66028e23450e1fe6649bf274b1adc592baf299d216b14d4e27f39e74d4</video>
    <notes>
      <note number="1" values="18" ticks="47" durationTicks="96" ppq="192" velocity="0.982"/>
      <note number="2" values="38" ticks="143" durationTicks="59" ppq="192" velocity="0.992"/>
      <note number="3" values="38" ticks="239" durationTicks="96" ppq="192" velocity="1"/>
      <note number="4" values="48" ticks="334" durationTicks="93" ppq="192" velocity="1"/>
      <note number="5" values="68" ticks="433" durationTicks="91" ppq="192" velocity="1"/>
      <note number="6" values="58" ticks="527" durationTicks="95" ppq="192" velocity="1"/>
    </notes>
  </exercise>
  <exercise number="3">
    <scale>major</scale>
    <bpm>104</bpm>
    <lowestNote>5</lowestNote>
    <tonalities>5</tonalities>
    <video name="3t.mp4" size="1019019" type="video/mp4" volume="0.5">3a9bd5be250dde3ec8255ea96cc69ee70dd42e3ccdedd9e4a47296ecb739059c</video>
    <notes>
      <note number="1" values="58" ticks="97" durationTicks="96" ppq="192" velocity="0.952"/>
      <note number="2" values="6" ticks="193" durationTicks="61" ppq="192" velocity="0.957"/>
      <note number="3" values="6" ticks="291" durationTicks="96" ppq="192" velocity="0.947"/>
      <note number="4" values="48" ticks="390" durationTicks="55" ppq="192" velocity="0.954"/>
      <note number="5" values="48" ticks="486" durationTicks="91" ppq="192" velocity="0.942"/>
      <note number="6" values="38" ticks="582" durationTicks="93" ppq="192" velocity="0.952"/>
      <note number="7" values="28" ticks="677" durationTicks="94" ppq="192" velocity="0.912"/>
    </notes>
  </exercise>
  <exercise number="4">
    <scale>major</scale>
    <bpm>104</bpm>
    <lowestNote>5</lowestNote>
    <tonalities>5</tonalities>
    <video name="4t.mp4" size="922369" type="video/mp4" volume="0.5">c7f48de4056e3052c5cf8dc877b9343e72836f1f3320f48a83ffbe585410fcd1</video>
    <notes>
      <note number="1" values="5" ticks="21" durationTicks="96" ppq="192" velocity="0.681"/>
      <note number="2" values="38" ticks="118" durationTicks="68" ppq="192" velocity="0.803"/>
      <note number="3" values="38" ticks="212" durationTicks="96" ppq="192" velocity="0.689"/>
      <note number="4" values="28" ticks="312" durationTicks="93" ppq="192" velocity="0.784"/>
      <note number="5" values="38" ticks="405" durationTicks="91" ppq="192" velocity="0.671"/>
      <note number="6" values="18" ticks="502" durationTicks="190" ppq="192" velocity="0.819"/>
    </notes>
  </exercise>
  <exercise number="5">
    <scale>major</scale>
    <bpm>104</bpm>
    <lowestNote>5</lowestNote>
    <tonalities>5</tonalities>
    <video name="5t.mp4" size="581265" type="video/mp4" volume="0.5">b4b43c3fd6f8d5a647d56bf3c105abb00aa8683e35566cdc196a9073b5dea0e7</video>
    <notes>
      <note number="1" values="58" ticks="96" durationTicks="82" ppq="192" velocity="0.747"/>
      <note number="2" values="6" ticks="194" durationTicks="68" ppq="192" velocity="0.782"/>
      <note number="3" values="6" ticks="293" durationTicks="79" ppq="192" velocity="0.669"/>
      <note number="4" values="48" ticks="385" durationTicks="69" ppq="192" velocity="0.784"/>
      <note number="5" values="48" ticks="486" durationTicks="83" ppq="192" velocity="0.671"/>
      <note number="6" values="38" ticks="579" durationTicks="86" ppq="192" velocity="0.819"/>
      <note number="7" values="28" ticks="674" durationTicks="77" ppq="192" velocity="0.719"/>
    </notes>
  </exercise>
  <exercise number="6">
    <scale>major</scale>
    <bpm>104</bpm>
    <lowestNote>5</lowestNote>
    <tonalities>5</tonalities>
    <video name="6t.mp4" size="1259735" type="video/mp4" volume="0.5">546b32f2188aa11a2c3798dc4aefefc491405fb21327192e7d14b0efd8356a81</video>
    <notes>
      <note number="1" values="5" ticks="21" durationTicks="96" ppq="192" velocity="0.681"/>
      <note number="2" values="38" ticks="117" durationTicks="72" ppq="192" velocity="0.803"/>
      <note number="3" values="38" ticks="214" durationTicks="96" ppq="192" velocity="0.689"/>
      <note number="4" values="28" ticks="310" durationTicks="93" ppq="192" velocity="0.784"/>
      <note number="5" values="38" ticks="406" durationTicks="91" ppq="192" velocity="0.671"/>
      <note number="6" values="18" ticks="503" durationTicks="188" ppq="192" velocity="0.819"/>
    </notes>
  </exercise>
  <exercise number="7">
    <scale>major</scale>
    <bpm>104</bpm>
    <lowestNote>5</lowestNote>
    <tonalities>5</tonalities>
    <video name="7t.mp4" size="811058" type="video/mp4" volume="0.5">44bd5dc3e6ff37fe7456ddee53f6f919437725d877e129f80cac6e4917a5bc24</video>
    <notes>
      <note number="1" values="5" ticks="673" durationTicks="96" ppq="192" velocity="0.677"/>
      <note number="2" values="38" ticks="767" durationTicks="58" ppq="192" velocity="0.795"/>
      <note number="3" values="38" ticks="865" durationTicks="96" ppq="192" velocity="0.685"/>
      <note number="4" values="28" ticks="959" durationTicks="93" ppq="192" velocity="0.78"/>
      <note number="5" values="38" ticks="1054" durationTicks="91" ppq="192" velocity="0.669"/>
      <note number="6" values="18" ticks="1151" durationTicks="95" ppq="192" velocity="0.819"/>
      <note number="7" values="5" ticks="1248" durationTicks="58" ppq="192" velocity="0.717"/>
    </notes>
  </exercise>
  <exercise number="8">
    <scale>major</scale>
    <bpm>104</bpm>
    <lowestNote>18</lowestNote>
    <tonalities>5</tonalities>
    <video name="8.mp4" size="2789709" type="video/mp4" volume="0.5">e6272bd6b2815e9f5a14003526170013413addadad2c7103a4dea76d6e07e209</video>
    <notes>
      <note number="1" values="18" ticks="33" durationTicks="96" ppq="192" velocity="0.976"/>
      <note number="2" values="38" ticks="129" durationTicks="59" ppq="192" velocity="0.984"/>
      <note number="3" values="38" ticks="225" durationTicks="96" ppq="192" velocity="0.919"/>
      <note number="4" values="48" ticks="320" durationTicks="93" ppq="192" velocity="1"/>
      <note number="5" values="68" ticks="419" durationTicks="91" ppq="192" velocity="1"/>
      <note number="6" values="58" ticks="513" durationTicks="95" ppq="192" velocity="1"/>
    </notes>
  </exercise>
  <exercise number="9">
    <scale>major</scale>
    <bpm>104</bpm>
    <lowestNote>5</lowestNote>
    <tonalities>5</tonalities>
    <video name="9.mp4" size="2630994" type="video/mp4" volume="0.5">0baf4dc7ce2637857871dd2bd0232d35783cf9cd280bb8144bf294cda9c9e80a</video>
    <notes>
      <note number="1" values="58" ticks="97" durationTicks="96" ppq="192" velocity="0.945"/>
      <note number="2" values="6" ticks="193" durationTicks="61" ppq="192" velocity="0.953"/>
      <note number="3" values="6" ticks="291" durationTicks="96" ppq="192" velocity="0.945"/>
      <note number="4" values="48" ticks="390" durationTicks="55" ppq="192" velocity="0.953"/>
      <note number="5" values="48" ticks="486" durationTicks="91" ppq="192" velocity="0.937"/>
      <note number="6" values="38" ticks="582" durationTicks="93" ppq="192" velocity="0.945"/>
      <note number="7" values="28" ticks="677" durationTicks="94" ppq="192" velocity="0.906"/>
    </notes>
  </exercise>
  <exercise number="10">
    <scale>major</scale>
    <bpm>104</bpm>
    <lowestNote>5</lowestNote>
    <tonalities>5</tonalities>
    <video name="10.mp4" size="2941242" type="video/mp4" volume="0.5">d2045fae09fa03b5098987597c4ca497133e50c5e3b20024ac266f2b1eac3ba5</video>
    <notes>
      <note number="1" values="5" ticks="21" durationTicks="96" ppq="192" velocity="0.677"/>
      <note number="2" values="38" ticks="118" durationTicks="68" ppq="192" velocity="0.795"/>
      <note number="3" values="38" ticks="212" durationTicks="96" ppq="192" velocity="0.685"/>
      <note number="4" values="28" ticks="312" durationTicks="93" ppq="192" velocity="0.78"/>
      <note number="5" values="38" ticks="405" durationTicks="91" ppq="192" velocity="0.669"/>
      <note number="6" values="18" ticks="502" durationTicks="190" ppq="192" velocity="0.819"/>
    </notes>
  </exercise>
</level>
